<mxfile host="app.diagrams.net" modified="2023-09-28T19:52:34.136Z" agent="Mozilla/5.0 (Macintosh; Intel Mac OS X 10.15; rv:109.0) Gecko/20100101 Firefox/118.0" etag="90Q8z7LypTxkFFUa7FU4" version="21.3.7" type="github">
  <diagram name="Page-1" id="g5xw6v3wTsrK2sM7KzKD">
    <mxGraphModel dx="2156" dy="727" grid="1" gridSize="10" guides="1" tooltips="1" connect="1" arrows="1" fold="1" page="1" pageScale="1" pageWidth="850" pageHeight="1100" math="0" shadow="0">
      <root>
        <mxCell id="0" />
        <mxCell id="1" parent="0" />
        <mxCell id="V1iKLa79cvMyrSN4luhA-1" value="&lt;div style=&quot;font-size: 30px;&quot;&gt;&lt;font style=&quot;font-size: 30px;&quot;&gt;AIM architecture desing&lt;/font&gt;&lt;/div&gt;&lt;div style=&quot;font-size: 30px;&quot;&gt;&lt;font style=&quot;font-size: 30px;&quot;&gt;&lt;br&gt;&lt;/font&gt;&lt;/div&gt;" style="text;html=1;strokeColor=none;fillColor=none;align=center;verticalAlign=middle;whiteSpace=wrap;rounded=0;" vertex="1" parent="1">
          <mxGeometry x="270" y="10" width="360" height="80" as="geometry" />
        </mxCell>
        <mxCell id="V1iKLa79cvMyrSN4luhA-19" style="edgeStyle=orthogonalEdgeStyle;rounded=0;orthogonalLoop=1;jettySize=auto;html=1;entryX=0;entryY=0.5;entryDx=0;entryDy=0;" edge="1" parent="1" source="V1iKLa79cvMyrSN4luhA-6" target="V1iKLa79cvMyrSN4luhA-15">
          <mxGeometry relative="1" as="geometry" />
        </mxCell>
        <mxCell id="V1iKLa79cvMyrSN4luhA-6" value="&lt;div&gt;Window&lt;/div&gt;&lt;div&gt;Manager&lt;br&gt;&lt;/div&gt;" style="rounded=0;whiteSpace=wrap;html=1;fillColor=#dae8fc;strokeColor=#6c8ebf;" vertex="1" parent="1">
          <mxGeometry x="40" y="100" width="120" height="60" as="geometry" />
        </mxCell>
        <mxCell id="V1iKLa79cvMyrSN4luhA-11" value="" style="edgeStyle=orthogonalEdgeStyle;rounded=0;orthogonalLoop=1;jettySize=auto;html=1;" edge="1" parent="1" target="V1iKLa79cvMyrSN4luhA-10">
          <mxGeometry relative="1" as="geometry">
            <mxPoint x="100" y="240" as="sourcePoint" />
          </mxGeometry>
        </mxCell>
        <mxCell id="V1iKLa79cvMyrSN4luhA-12" value="...." style="edgeLabel;html=1;align=center;verticalAlign=middle;resizable=0;points=[];" vertex="1" connectable="0" parent="V1iKLa79cvMyrSN4luhA-11">
          <mxGeometry x="0.05" relative="1" as="geometry">
            <mxPoint as="offset" />
          </mxGeometry>
        </mxCell>
        <mxCell id="V1iKLa79cvMyrSN4luhA-14" value="&lt;div&gt;Keyboard&lt;/div&gt;&lt;div&gt;Manager&lt;br&gt;&lt;/div&gt;" style="whiteSpace=wrap;html=1;fillColor=#dae8fc;strokeColor=#6c8ebf;" vertex="1" parent="1">
          <mxGeometry x="50" y="430" width="120" height="60" as="geometry" />
        </mxCell>
        <mxCell id="V1iKLa79cvMyrSN4luhA-15" value="Application" style="whiteSpace=wrap;html=1;fillColor=#f8cecc;strokeColor=#b85450;fontStyle=1;fontSize=16;" vertex="1" parent="1">
          <mxGeometry x="365" y="100" width="120" height="60" as="geometry" />
        </mxCell>
        <mxCell id="V1iKLa79cvMyrSN4luhA-20" value="&lt;div&gt;Command&lt;/div&gt;&lt;div&gt;Manager&lt;br&gt;&lt;/div&gt;" style="whiteSpace=wrap;html=1;fillColor=#dae8fc;strokeColor=#6c8ebf;" vertex="1" parent="1">
          <mxGeometry x="50" y="540" width="120" height="60" as="geometry" />
        </mxCell>
        <mxCell id="V1iKLa79cvMyrSN4luhA-22" value="&lt;div&gt;Styles&lt;/div&gt;&lt;div&gt;&lt;br&gt;&lt;/div&gt;" style="whiteSpace=wrap;html=1;" vertex="1" parent="1">
          <mxGeometry x="-350" y="260" width="120" height="60" as="geometry" />
        </mxCell>
        <mxCell id="V1iKLa79cvMyrSN4luhA-23" value="&lt;div&gt;Config&lt;/div&gt;Manager" style="whiteSpace=wrap;html=1;fillColor=#dae8fc;strokeColor=#6c8ebf;" vertex="1" parent="1">
          <mxGeometry x="40" y="210" width="120" height="60" as="geometry" />
        </mxCell>
        <mxCell id="V1iKLa79cvMyrSN4luhA-24" value="&lt;div&gt;Plugin&lt;/div&gt;&lt;div&gt;Manager&lt;/div&gt;" style="whiteSpace=wrap;html=1;fillColor=#dae8fc;strokeColor=#6c8ebf;" vertex="1" parent="1">
          <mxGeometry x="50" y="320" width="120" height="60" as="geometry" />
        </mxCell>
        <mxCell id="V1iKLa79cvMyrSN4luhA-25" value="Layout" style="rounded=1;whiteSpace=wrap;html=1;" vertex="1" parent="1">
          <mxGeometry x="-170" y="10" width="120" height="60" as="geometry" />
        </mxCell>
        <mxCell id="V1iKLa79cvMyrSN4luhA-26" value="&lt;div&gt;File&lt;/div&gt;&lt;div&gt;Processor&lt;br&gt;&lt;/div&gt;" style="whiteSpace=wrap;html=1;" vertex="1" parent="1">
          <mxGeometry x="-350" y="170" width="120" height="60" as="geometry" />
        </mxCell>
        <mxCell id="V1iKLa79cvMyrSN4luhA-27" value="&lt;div&gt;Syntax&lt;/div&gt;&lt;div&gt;Highliter&lt;br&gt;&lt;/div&gt;" style="whiteSpace=wrap;html=1;" vertex="1" parent="1">
          <mxGeometry x="-350" y="80" width="120" height="60" as="geometry" />
        </mxCell>
      </root>
    </mxGraphModel>
  </diagram>
</mxfile>
